<svg width="73" height="65" viewBox="0 0 73 65" fill="none" xmlns="http://www.w3.org/2000/svg">
<path fill-rule="evenodd" clip-rule="evenodd" d="M19.126 36.5296C19.126 38.0472 20.977 38.806 24.679 38.806H28.6103C30.0163 38.806 31.1553 38.6965 32.0273 38.4776C32.74 37.8985 33.4512 37.294 34.1582 36.665C34.1616 36.6206 34.1633 36.5755 34.1633 36.5296C34.1633 35.9877 33.934 35.2469 33.4753 34.3075C33.4098 34.0907 33.3279 33.892 33.2296 33.7113L33.033 33.1693C32.5744 31.5795 32.214 29.3755 31.9519 26.5572C31.6898 23.7027 31.5588 20.7218 31.5588 17.6144C31.5588 14.1819 31.7062 11.219 32.0011 8.72592L32.7873 1.24656C32.7873 0.41552 32.4597 0 31.8045 0C31.182 0 30.4449 0.343256 29.5931 1.02977C28.4137 1.89694 26.9231 2.81831 25.1212 3.79388C23.3194 4.73332 21.8288 5.29337 20.6494 5.47403C20.2235 5.51016 19.8795 5.70888 19.6174 6.07021C19.3881 6.3954 19.2734 6.77479 19.2734 7.20837C19.2734 7.60583 19.4044 7.96715 19.6665 8.29234C19.9614 8.58139 20.3545 8.72592 20.8459 8.72592C21.2718 12.0862 21.4848 15.844 21.4848 19.9992C21.4848 22.7091 21.3701 25.2383 21.1408 27.5869C20.9442 29.9355 20.6494 31.7963 20.2562 33.1693C20.1907 33.35 20.1088 33.5307 20.0105 33.7113C19.945 33.892 19.8795 34.0907 19.814 34.3075C19.3553 35.2469 19.126 35.9877 19.126 36.5296Z" fill="#D7C6AA"/>
<path fill-rule="evenodd" clip-rule="evenodd" d="M46.0628 41.8546C50.1117 37.8432 53.4205 33.6388 55.8227 29.6242C56.2598 29.6013 56.7046 29.5898 57.1573 29.5898C59.7443 29.5898 62.1859 30.0587 64.4819 30.9966C66.7779 31.9344 68.605 33.1956 69.9632 34.7801C71.3538 36.3647 72.049 38.0948 72.049 39.9704C72.049 42.0401 71.2406 43.8187 69.6237 45.3063C68.0391 46.7615 66.1473 47.9418 63.9483 48.8473C61.7493 49.7204 58.9682 50.6744 55.605 51.7092C52.5976 52.6471 50.3985 53.4393 49.008 54.0861C47.6175 54.7005 46.9222 55.4282 46.9222 56.269H60.4073C62.2182 56.269 63.5764 56.2204 64.4819 56.1234C65.3874 56.0264 66.0988 55.8162 66.6162 55.4928C67.1336 55.1694 67.5864 54.6682 67.9744 53.9891C68.2008 53.5364 68.411 53.2291 68.605 53.0675C68.8314 52.9058 69.2033 52.8249 69.7207 52.8249C70.4321 52.8249 70.901 52.8896 71.1274 53.0189C71.3861 53.1483 71.5155 53.3423 71.5155 53.601C71.5155 53.8597 71.4993 54.0699 71.467 54.2316L70.7393 61.8958C70.6423 62.6396 70.3028 63.1893 69.7207 63.5451C69.1386 63.8685 68.1523 64.0301 66.7617 64.0301H44.0117C43.9147 62.6719 43.8662 61.3784 43.8662 60.1495C43.8662 58.1122 44.0279 56.5277 44.3513 55.3958C44.7393 54.0053 45.4184 52.7279 46.3886 51.5637C47.3587 50.3672 48.4097 49.3162 49.5416 48.4107C50.6734 47.5053 52.1448 46.4381 53.9558 45.2092C55.5727 44.1097 56.85 43.2043 57.7879 42.4928C58.7257 41.749 59.5018 40.9568 60.1162 40.116C60.7306 39.2428 61.0379 38.3212 61.0379 37.351C61.0379 35.8958 60.763 34.7316 60.2132 33.8585C59.6635 32.953 58.7742 32.5003 57.5453 32.5003C56.6722 32.5003 55.9446 32.953 55.3625 33.8585C54.8127 34.7316 54.5702 35.9767 54.6349 37.5936C54.6995 39.2428 54.2145 40.5202 53.1796 41.4257C52.1448 42.3311 50.8836 42.7839 49.3961 42.7839C48.1702 42.7839 47.0592 42.4741 46.0628 41.8546Z" fill="#D7C6AA"/>
<path fill-rule="evenodd" clip-rule="evenodd" d="M9.48805 53.3874C14.7778 59.0776 29.6435 53.8571 42.6915 41.7273C55.7396 29.5974 62.029 15.1515 56.7392 9.46136C52.8398 5.26669 43.7363 7.00125 33.9933 13.0621C40.7653 9.24848 46.7497 8.24656 49.3509 11.0447C53.2741 15.2648 48.0158 26.5307 37.6061 36.2078C27.1965 45.8849 15.5775 50.3086 11.6543 46.0885C9.02076 43.2556 10.5246 37.2477 14.9468 30.6767C8.03173 40.0544 5.54828 49.1494 9.48805 53.3874Z" fill="#D7C6AA"/>
</svg>
