<svg width="72" height="65" viewBox="0 0 72 65" fill="none" xmlns="http://www.w3.org/2000/svg">
<path fill-rule="evenodd" clip-rule="evenodd" d="M18.4326 36.5296C18.4326 38.0472 20.2836 38.806 23.9856 38.806H27.9169C29.3229 38.806 30.462 38.6965 31.334 38.4776C32.0466 37.8985 32.7578 37.294 33.4649 36.665C33.4682 36.6206 33.4699 36.5755 33.4699 36.5296C33.4699 35.9877 33.2406 35.2469 32.7819 34.3075C32.7164 34.0907 32.6345 33.892 32.5362 33.7113L32.3397 33.1693C31.881 31.5795 31.5206 29.3755 31.2586 26.5572C30.9965 23.7027 30.8654 20.7218 30.8654 17.6144C30.8654 14.1819 31.0129 11.219 31.3077 8.72592L32.094 1.24656C32.094 0.41552 31.7664 0 31.1111 0C30.4887 0 29.7516 0.343256 28.8998 1.02977C27.7204 1.89694 26.2297 2.81831 24.4279 3.79388C22.626 4.73332 21.1354 5.29337 19.956 5.47403C19.5301 5.51016 19.1861 5.70888 18.924 6.07021C18.6947 6.3954 18.58 6.77479 18.58 7.20837C18.58 7.60583 18.7111 7.96715 18.9732 8.29234C19.268 8.58139 19.6612 8.72592 20.1526 8.72592C20.5785 12.0862 20.7914 15.844 20.7914 19.9992C20.7914 22.7091 20.6767 25.2383 20.4474 27.5869C20.2509 29.9355 19.956 31.7963 19.5629 33.1693C19.4974 33.35 19.4154 33.5307 19.3172 33.7113C19.2516 33.892 19.1861 34.0907 19.1206 34.3075C18.6619 35.2469 18.4326 35.9877 18.4326 36.5296Z" fill="#F9F9F9"/>
<path fill-rule="evenodd" clip-rule="evenodd" d="M45.3694 41.8546C49.4183 37.8432 52.7271 33.6388 55.1294 29.6242C55.5664 29.6013 56.0112 29.5898 56.4639 29.5898C59.051 29.5898 61.4925 30.0587 63.7885 30.9966C66.0845 31.9344 67.9117 33.1956 69.2699 34.7801C70.6604 36.3647 71.3557 38.0948 71.3557 39.9704C71.3557 42.0401 70.5472 43.8187 68.9303 45.3063C67.3457 46.7615 65.4539 47.9418 63.2549 48.8473C61.0559 49.7204 58.2748 50.6744 54.9117 51.7092C51.9042 52.6471 49.7052 53.4393 48.3146 54.0861C46.9241 54.7005 46.2288 55.4282 46.2288 56.269H59.7139C61.5248 56.269 62.8831 56.2204 63.7885 56.1234C64.694 56.0264 65.4054 55.8162 65.9229 55.4928C66.4403 55.1694 66.893 54.6682 67.2811 53.9891C67.5074 53.5364 67.7176 53.2291 67.9117 53.0675C68.138 52.9058 68.5099 52.8249 69.0273 52.8249C69.7388 52.8249 70.2077 52.8896 70.434 53.0189C70.6928 53.1483 70.8221 53.3423 70.8221 53.601C70.8221 53.8597 70.8059 54.0699 70.7736 54.2316L70.046 61.8958C69.949 62.6396 69.6094 63.1893 69.0273 63.5451C68.4452 63.8685 67.4589 64.0301 66.0684 64.0301H43.3184C43.2214 62.6719 43.1729 61.3784 43.1729 60.1495C43.1729 58.1122 43.3345 56.5277 43.6579 55.3958C44.046 54.0053 44.7251 52.7279 45.6952 51.5637C46.6654 50.3672 47.7164 49.3162 48.8482 48.4107C49.9801 47.5053 51.4515 46.4381 53.2624 45.2092C54.8793 44.1097 56.1567 43.2043 57.0945 42.4928C58.0323 41.749 58.8084 40.9568 59.4229 40.116C60.0373 39.2428 60.3445 38.3212 60.3445 37.351C60.3445 35.8958 60.0696 34.7316 59.5199 33.8585C58.9701 32.953 58.0808 32.5003 56.852 32.5003C55.9788 32.5003 55.2512 32.953 54.6691 33.8585C54.1194 34.7316 53.8768 35.9767 53.9415 37.5936C54.0062 39.2428 53.5211 40.5202 52.4863 41.4257C51.4515 42.3311 50.1903 42.7839 48.7027 42.7839C47.4769 42.7839 46.3658 42.4741 45.3694 41.8546Z" fill="#F9F9F9"/>
<path fill-rule="evenodd" clip-rule="evenodd" d="M8.79469 53.3875C14.0844 59.0776 28.9501 53.8572 41.9982 41.7273C55.0462 29.5975 61.3356 15.1515 56.0459 9.46138C52.1464 5.26671 43.0429 7.00126 33.3 13.0621C40.0719 9.24849 46.0564 8.24657 48.6576 11.0447C52.5807 15.2648 47.3224 26.5307 36.9128 36.2078C26.5031 45.8849 14.8841 50.3087 10.961 46.0885C8.3274 43.2556 9.83127 37.2477 14.2534 30.6767C7.33837 40.0544 4.85492 49.1494 8.79469 53.3875Z" fill="#F9F9F9"/>
</svg>
